# xmcd
#
# Track frame offsets: 
#        150
#        13179
#        31778
#        43874
#        56460
#        74945
#        87973
#        104230
#        130414
#        147849
#        167325
#        186489
#
# Disc length: 2742 seconds
#
# Revision: 0
# Processed by: cddbd v1.5.2PL0 Copyright (c) Steve Scherf et al.
# Submitted via: ExactAudioCopy v0.95b4
#
DISCID=b30ab40c
DTITLE=The Rounders - now - a - day songs
DYEAR=2004
DGENRE=Blues
TTITLE0=Southern Gothic Imagery Blues
TTITLE1=Fetch Me A Robin
TTITLE2=Raspberries and Cole Porter
TTITLE3=Before I Murder You
TTITLE4=The New CC Rider Blues
TTITLE5=You'll Be Cryin' Your Tears On The Floor
TTITLE6=Hi - Lo Shuffle
TTITLE7=Gesturing
TTITLE8=Four - Star Bugler
TTITLE9=Them Jackson Blues
TTITLE10=Well You Know
TTITLE11=Eli , the Bakers Son
EXTD=
EXTT0=
EXTT1=
EXTT2=
EXTT3=
EXTT4=
EXTT5=
EXTT6=
EXTT7=
EXTT8=
EXTT9=
EXTT10=
EXTT11=
PLAYORDER=
